<svg xmlns="http://www.w3.org/2000/svg" viewBox="0 0 100 100">
  <rect x="48" y="60" width="4" height="32" rx="2" fill="#15803d"/>
  <ellipse cx="38" cy="78" rx="9" ry="5" fill="#16a34a" transform="rotate(-20 38 78)"/>
  <ellipse cx="62" cy="75" rx="9" ry="5" fill="#16a34a" transform="rotate(20 62 75)"/>
  <ellipse cx="50" cy="28" rx="8" ry="14" fill="#fde047"/>
  <ellipse cx="50" cy="28" rx="8" ry="14" fill="#fde047" transform="rotate(30 50 28)"/>
  <ellipse cx="50" cy="28" rx="8" ry="14" fill="#fde047" transform="rotate(60 50 28)"/>
  <ellipse cx="50" cy="28" rx="8" ry="14" fill="#fde047" transform="rotate(90 50 28)"/>
  <ellipse cx="50" cy="28" rx="8" ry="14" fill="#fde047" transform="rotate(120 50 28)"/>
  <ellipse cx="50" cy="28" rx="8" ry="14" fill="#fde047" transform="rotate(150 50 28)"/>
  <circle cx="50" cy="40" r="12" fill="#f97316"/>
  <circle cx="50" cy="40" r="8" fill="#fb923c"/>
  <circle cx="50" cy="40" r="4" fill="#fbbf24"/>
</svg>
