<svg xmlns="http://www.w3.org/2000/svg" viewBox="0 0 100 120">
  <rect x="48" y="58" width="4" height="52" rx="2" fill="#15803d"/>
  <path d="M48 76 Q30 70 24 60 Q36 68 48 73Z" fill="#16a34a"/>
  <path d="M52 76 Q70 70 76 60 Q64 68 52 73Z" fill="#16a34a"/>
  <path d="M48 90 Q32 85 27 74 Q40 82 48 87Z" fill="#16a34a"/>
  <path d="M52 90 Q68 85 73 74 Q60 82 52 87Z" fill="#16a34a"/>
  <ellipse cx="50" cy="48" rx="13" ry="17" fill="#166534"/>
  <ellipse cx="50" cy="47" rx="10" ry="14" fill="#15803d"/>
  <line x1="50" y1="32" x2="50" y2="22" stroke="#166534" stroke-width="2"/>
  <line x1="45" y1="33" x2="39" y2="24" stroke="#166534" stroke-width="2"/>
  <line x1="55" y1="33" x2="61" y2="24" stroke="#166534" stroke-width="2"/>
  <line x1="37" y1="39" x2="28" y2="33" stroke="#166534" stroke-width="2"/>
  <line x1="63" y1="39" x2="72" y2="33" stroke="#166534" stroke-width="2"/>
  <line x1="36" y1="50" x2="26" y2="48" stroke="#166534" stroke-width="2"/>
  <line x1="64" y1="50" x2="74" y2="48" stroke="#166534" stroke-width="2"/>
  <circle cx="50" cy="22" r="1.5" fill="#14532d"/>
  <circle cx="39" cy="24" r="1.5" fill="#14532d"/>
  <circle cx="61" cy="24" r="1.5" fill="#14532d"/>
  <circle cx="28" cy="33" r="1.5" fill="#14532d"/>
  <circle cx="72" cy="33" r="1.5" fill="#14532d"/>
  <line x1="42" y1="34" x2="38" y2="20" stroke="#a855f7" stroke-width="1.5"/>
  <line x1="45" y1="32" x2="43" y2="18" stroke="#a855f7" stroke-width="1.5"/>
  <line x1="48" y1="31" x2="47" y2="16" stroke="#a855f7" stroke-width="1.5"/>
  <line x1="51" y1="31" x2="51" y2="16" stroke="#a855f7" stroke-width="1.5"/>
  <line x1="54" y1="32" x2="57" y2="18" stroke="#a855f7" stroke-width="1.5"/>
  <line x1="57" y1="34" x2="62" y2="20" stroke="#a855f7" stroke-width="1.5"/>
  <circle cx="38" cy="19" r="2" fill="#c4b5fd"/>
  <circle cx="43" cy="17" r="2" fill="#c4b5fd"/>
  <circle cx="47" cy="15" r="2" fill="#c4b5fd"/>
  <circle cx="51" cy="15" r="2" fill="#c4b5fd"/>
  <circle cx="57" cy="17" r="2" fill="#c4b5fd"/>
  <circle cx="62" cy="19" r="2" fill="#c4b5fd"/>
  <ellipse cx="50" cy="34" rx="11" ry="7" fill="#7c3aed" opacity="0.85"/>
</svg>
