<svg xmlns="http://www.w3.org/2000/svg" viewBox="0 0 100 100">
  <rect x="48" y="55" width="4" height="35" rx="2" fill="#15803d"/>
  <ellipse cx="35" cy="72" rx="10" ry="6" fill="#16a34a" transform="rotate(-25 35 72)"/>
  <ellipse cx="65" cy="68" rx="10" ry="6" fill="#16a34a" transform="rotate(25 65 68)"/>
  <circle cx="50" cy="38" r="20" fill="#7c3aed" opacity="0.15"/>
  <circle cx="50" cy="38" r="14" fill="#8b5cf6"/>
  <line x1="50" y1="18" x2="50" y2="10" stroke="#8b5cf6" stroke-width="2"/>
  <line x1="50" y1="18" x2="43" y2="11" stroke="#8b5cf6" stroke-width="2"/>
  <line x1="50" y1="18" x2="57" y2="11" stroke="#8b5cf6" stroke-width="2"/>
  <line x1="36" y1="24" x2="29" y2="18" stroke="#8b5cf6" stroke-width="2"/>
  <line x1="64" y1="24" x2="71" y2="18" stroke="#8b5cf6" stroke-width="2"/>
  <line x1="30" y1="38" x2="22" y2="38" stroke="#8b5cf6" stroke-width="2"/>
  <line x1="70" y1="38" x2="78" y2="38" stroke="#8b5cf6" stroke-width="2"/>
  <line x1="36" y1="52" x2="29" y2="58" stroke="#8b5cf6" stroke-width="2"/>
  <line x1="64" y1="52" x2="71" y2="58" stroke="#8b5cf6" stroke-width="2"/>
  <circle cx="50" cy="38" r="8" fill="#a78bfa"/>
  <circle cx="50" cy="38" r="4" fill="#c4b5fd"/>
</svg>
